<?xml version="1.0" encoding="iso-8859-1"?>
<!-- Generator: Adobe Illustrator 29.5.1, SVG Export Plug-In . SVG Version: 9.03 Build 0)  -->
<svg version="1.1" id="Layer_1" xmlns="http://www.w3.org/2000/svg" xmlns:xlink="http://www.w3.org/1999/xlink" x="0px" y="0px"
	 width="1080px" height="219.109px" viewBox="0 0 1080 219.109" enable-background="new 0 0 1080 219.109" xml:space="preserve">
<g>
	<path stroke="#000000" stroke-width="3" stroke-miterlimit="10" d="M589.57,49.375c0.363,0.368,2.036,0.638,2.863,1.176
		c2.304,1.495,4.413,5.299,4.3,8.04c-0.073,1.771-1.673,2.743-1.734,4.465c-1.57-0.568,0.093-1.3-0.071-2.653
		c-0.254-2.091-2.713-4.331-4.459-5.344c-5.897-3.421-15.374-1.531-21.722-0.592c-2.815,0.416-6.84,0.548-9.583,1.473
		c-0.484,0.163-1.033,0.659-1.164,1.169c5.089-0.4,10.004-2.081,15.103-2.539c4.544-0.408,16.236-0.172,19.283,3.671
		c1.527,1.926,1.337,5.438-1.055,6.48l-0.822-0.827c-3.054,1.332-4.529-3.194-7.194-4.667c-5.462-3.02-15.078,0.196-21.059-1.693
		l-0.005,1.279c-1.099,0.407-0.737-0.706-1.047-0.777c-1.676-0.386-6.439,0.88-8.305,1.2c-0.216-1.246,0.297-0.688,0.987-0.9
		c1.314-0.404,2.732-0.726,4.112-0.802l-1.37-0.772c-16.64,4.382-33.767,11.346-46.776,22.879
		c-2.139,1.896-8.854,8.708-9.924,11.035c-0.222,0.482,0.224,1.066,0.151,1.191c-0.12,0.204-1.792,0.635-2.393,1.632
		c-5.787,9.606-5.113,23.46,3.363,31.289c0.332,0.307,2.189,1.823,2.508,1.526c-1.798-2.536-4.384-5.415-1.719-8.296
		c5.496-2.926,10.809-6.289,16.31-9.19c18.638-9.829,38.803-18.703,59.324-23.997c5.007-1.292,11.277-3.125,16.415-2.616
		c1.434,0.142,5.339,1.639,5.938,1.542c1.873-0.301,8.158-6.567,10.784-7.243c1.079-1.874,1.076-4.003,3.3-5.009
		c1.631-0.737,1.826,0.269,3.001,0.29c0.561,0.01,1.168-0.525,1.699-0.502c0.967,0.042,4.323,1.836,3.547,3.334
		c-1.987,5.035-4.941,9.558-7.342,14.378c-1.597,3.206-2.968,6.567-4.034,9.624c-1.875,5.376-6.543,19.205-4.952,24.312
		c0.615,1.975,3.256,1.569,3.631,3.606c0.974,5.294-6.883,7.207-8.637,0.542c-1.341-5.094,0.43-9.713,0.776-14.781
		c-1.931,3.273-4.048,6.321-6.574,9.133c-11.045,12.296-26.611,21.12-42.673,24.702c-0.727,0.162-2.076-0.27-2.347-0.174
		c-0.106,0.037-1.102,1.302-1.784,1.368c-0.143,1.414,2.336-0.879,2.117,0.829c-0.226,1.766-1.178,2.837-2.39,4.003
		c-0.682,0.204-5.042-1.821-6.344-2.056c-4.132-0.746-11.374-1.375-15.721-1.714c-8.231-0.643-16.608-0.18-24.874-0.428
		c-0.175,1.185,0.204,0.792,1.054,0.847c11.163,0.732,22.874-0.28,33.923,1.808c1.616,0.305,10.527,2.595,10.522,3.924
		c-0.352,0.329-0.655,0.863-1.152,0.997c-1.495,0.403-10.024-2.364-12.347-2.799c-8.042-1.504-19.304-2.359-27.52-2.674
		c-17.619-0.674-34.967,2.518-52.118,5.957l12.233-3.279c4.357-1.221,10.546-1.073,14.667-2.342
		c0.364-0.112,0.741-0.322,0.744-0.739c-1.377-0.58-2.099,0.197-3.233,0.372c-13.17,2.033-25.569,4.22-38.137,8.638
		c-6.843,2.405-13.517,5.192-19.9,8.609l0.022,1.478l-1.271-0.421l-0.026,1.433c0.129,0.517,2.134,0.439,2.057,1.757
		c-2.101,2.072-7.966,5.71-10.067,2.067c-2.038-3.535,4.269-7.639,6.888-9.158c23.295-13.509,64.764-18.786,91.555-20.204
		c1.92-0.102,4.947,1.173,6.137-0.938c-17.676-6.47-36.191-10.693-53.245-18.819c-9.56-4.555-17.831-9.834-25.843-16.68
		c-0.294-0.251-0.433-0.634-0.457-1.015c-1.411-0.163-1.133,1.464-1.67,2.354c-1.437,2.383-3.377,3.177-5.974,2.095
		c-1.033-0.43-5.115-3.225-6.169-4.029c-1.543-1.176-4.637-3.876-6.019-5.242c-1.447-1.43-2.537-3.623-4.191-4.944
		c0.136,4.099,4.073,9.344,7.88,10.823c0.948,0.368,2.821,0.411,3.099,0.59c1.53,0.983,0.285,4.165-1.281,4.629
		c-6.634,1.963-13.4-8.482-15.643-13.504c-0.695-1.556-1.806-6.122-2.474-7.086c-1.28-1.849-6.075-5.421-7.931-7.678
		c-3.143-3.821-4.883-7.543-4.883-12.613c0-8.516,5.389-13.961,14.089-11.335c10.41,3.142,20.167,10.224,29.811,14.821
		c1.889,0.901,8.422,3.801,10.105,3.926c1.868,0.139,8.69-3.7,11.139-4.552c6.073-2.114,11.346-2.822,16.724,1.397l0.826,0.033
		c5.391-2.581,11.086-4.218,16.449-6.976c2.907-1.495,6.089-3.105,8.196-5.412c0.313-0.343,1.103-0.496,1.211-0.69
		c0.582-1.041-0.783-3.095,1.998-3.346c1.499-0.135,2.698,0.44,3.301,1.846c1.504,3.511-4.937,6.366-6.809,8.379l-21.799,11.244
		c-0.915,1.018-0.721,5.225-1.595,6.908c-0.066,0.128-1.704,1.932-1.821,2c-0.459,0.267-1.087-0.176-1.496,0.171
		c-0.635,0.537-0.662,2-1.463,2.419c-4.475,0.198-0.455-2.134-0.084-4.388c0.327-1.982-1.091-5.667-3.485-5.614
		c-1.433,0.032-5.858,1.985-7.82,2.425c-2.379,0.534-5.963,1.115-8.396,1.384c-1.831,0.203-4.54-0.406-6.143,0.236
		c-0.679,0.272-4.054,3.139-4.553,3.936c-2.647,4.234-2.05,7.52,0.357,11.681c3.364,5.818,16.507,13.865,22.604,16.921
		c14.129,7.082,29.67,10.852,44.52,16.056c0.211-0.894-0.478-0.961-0.964-1.369c-6.461-5.422-12.63-9.114-14.984-18.159
		c-7.174-27.566,28.728-48.688,49.872-57.212c7.247-2.922,16.783-6.832,24.12-9.039c5.628-1.692,11.968-1.969,17.615-3.859
		c0.393-3.875,0.338-8.576,2.103-12.122c0.67-1.347,0.776-2.11,2.627-1.831l-0.004,2.117c0.502-1.343,0.944-2.946,2.554-2.121
		l-0.845-1.268l2.113-0.667l0.859,0.466c-0.119,2.892-1.591,5.879-2.085,8.513C588.739,40.961,588.35,48.139,589.57,49.375z
		 M439.332,82.59c-9.635-3.094-17.837-9.462-27.423-12.751c-5.468-1.876-16.071-4.808-11.921,5.106
		c0.372,0.89,3.284,5.221,4.197,5.062c1.902-2.25,5.14-4.23,7.738-1.695c1.936,1.89-1.178,4.003-0.681,6.097
		c2.567,0.764,1.539,2.939,1.74,3.231c0.111,0.161,2.578,1.306,3.361,1.982c1.596,1.377,3.209,3.695,4.848,5.125
		c2.824,2.465,6.045,4.645,9.073,6.867l0.984,0.073C427.929,93.247,433.47,87.64,439.332,82.59z M402.878,85.01
		c-1.841-1.689-5.787-6.599-6.632-8.878c-0.447-1.204-0.445-2.505-0.728-3.734c-0.478-0.057-1.131,1.355-1.17,1.591
		c-0.775,4.638,6.561,12.108,10.144,14.715c2.869,2.087,6.317,3.401,8.99,5.765c3.056,2.702,5.593,7.2,10.111,8.068
		c0.19-0.832-0.439-1.003-0.889-1.444c-2.782-2.725-7.199-7.389-10.065-9.577C409.855,89.39,405.478,87.395,402.878,85.01z
		 M469.955,79.618l-15.308,2.753c0.782,1.007,2.454,0.341,3.569,0.159c2.928-0.48,5.903-1.293,8.855-1.763L469.955,79.618z
		 M608.612,83.437c-0.9-0.263-1.171,0.323-1.71,0.624c-25.97,14.476-51.088,29.32-79.952,38.22
		c-5.956,1.836-12.659,3.142-18.183,4.851c-0.336,0.104-2.16,0.459-2.407,0.453c-0.1-0.002-1.541-2.273-1.52-0.641
		c1.998,3.103,6.796,5.968,10.19,7.662c15.665,7.819,33.261,9.956,49.769,3.377c14.301-5.7,39.377-23.979,35.128-41.843
		c-0.633-2.661-2.82-2.983-3.644-5.056c3.949-1.953,7.809-4.185,11.486-6.599C608.263,84.16,608.866,84.59,608.612,83.437z
		 M609.463,85.56l-4.152,2.75l1.606,4.465C608.56,91.066,608.676,87.817,609.463,85.56z M592.875,86.833l-5.26,0.052l-10.473,2.064
		c3.391-0.241,6.683-0.83,10.083-1.075c1.674-0.121,2.921,0.326,4.664-0.131C592.631,87.548,593.074,88.03,592.875,86.833z
		 M575.861,89.384c-0.665-0.258-0.908-0.202-1.548-0.092c-3.409,0.585-10.053,2.729-13.534,3.886
		c-15.357,5.104-33.485,13.665-47.308,22.015c-0.652,0.394-2.99,1.733-2.254,2.63l1.269-0.423l-0.42,1.694
		c7.862,0.708,15.145-1.231,22.523-3.623c13.361-4.332,27.91-10.954,40.372-17.442c2.059-1.072,12.786-6.65,13.671-7.582
		c0.175-0.184,0.573-0.518,0.417-0.64c-5.132-1.124-10.223,0.24-15.309,0.841L575.861,89.384z M602.596,89.854
		c-4.296,0.037-0.663,2.909,0.192,5.128c0.932,2.419,1.046,5.02,1.358,7.556C606.925,98.12,605.286,93.78,602.596,89.854z
		 M543.962,144.149c-2.056-0.191-4.539-0.182-6.538-0.479c-2.581-0.383-6.424-0.889-8.831-1.476
		c-2.709-0.661-5.175-2.499-8.022-2.288c0.117,0.735,0.848,0.737,1.372,0.961c2.701,1.154,8.343,2.831,11.198,3.257
		c3.231,0.482,6.938,0.163,10.287,0.779C544.249,145.054,543.943,144.867,543.962,144.149z M552.894,143.727
		c-2.29-0.101-5.081-0.107-7.337,0.117c-0.72,0.072-1.42,0.218-1.163,1.151c1.787-0.772,3.775-0.317,5.684-0.477
		C550.628,144.472,552.688,144.283,552.894,143.727z M500.578,147.97c-2.593-0.206-5.354,0.666-7.908,0.481
		c-0.922-0.067-0.892,0.564-0.594,0.788c2.581-0.408,5.301-0.117,7.876-0.42C500.588,148.744,501.249,148.477,500.578,147.97z"/>
	<path stroke="#000000" stroke-width="3" stroke-miterlimit="10" d="M206.443,62.816c-5.726,6.146-14.266,9.139-20.613,14.88
		c-2.387,2.159-5.715,5.53-7.642,8.082c-1.742,2.308-3.907,7.286-6.411,8.466c-0.702,0.331-1.565,0.071-2.012,0.321
		c-0.164,0.092-1.973,3.146-1.792,3.301c8.695,1.013,17.412,1.953,26.104,3.026c19.892,2.455,40.05,4.963,59.916,8.122
		c3.437,0.547,6.974,1.929,10.529,2.011l-19.921-25.317l1.067-1.812c2.62,0.89,3.888-0.775,6.086-1.949
		c-1.78-1.814-6.406-3.286-6.784-5.978c-0.472-3.363,2.48-6.625,5.268-7.83c0.982,0.752,2.824,0.83,3.641,1.505
		c0.804,0.664,1.629,3.297,2.759,4.463c6.639,6.85,29.459,7.694,39.085,8.961c3.465,0.456,6.932,1.217,10.347,1.945
		c1.825,0.026,1.917-2.323,3.84-2.762c1.389-0.317,4.346-0.301,5.266,0.947l0.35,0.837c-0.792,3.89-1.433,6.942-0.056,10.739
		c2.202,6.073,6.865,13.099,12.558,16.335c2.052,1.167,8.825,2.29,5.197,5.451c-2.57,2.24-6.815,0.549-9.293-0.938
		c-5.75-3.449-10.682-10.447-13.978-16.191c-1.103-1.923-1.39-5.406-4.174-5.382c1.019,1.822-3.266,3.812-4.819,4.739
		c-6.826,4.074-12.781,7.218-18.335,13.121c-0.389,0.413-1.34,0.753-1.425,0.902c-0.321,0.561,0.052,2.008-0.207,2.984
		c-0.382,1.44-1.344,3.364-2.403,4.42l25.5,34.742c1.853,1.342,3.42,3.473,4.99,4.903c1.958,1.784,5.092,2.855,6.274,5.965
		c0.843,2.217-1.463,2.213-2.117,2.958c-1.16,1.321-0.177,4.274-3.332,3.65c-2.879-0.569-2.473-2.898-3.773-5.079
		c-4.754-7.978-11.234-15.266-16.802-22.502c-3.133-4.071-6.034-8.87-9.703-13.027c-2.653-3.005-5.99-5.691-8.704-8.677
		l-29.99-1.525c-6.067,0.149-12.183-0.148-18.229,0.061c-11.143,0.385-23.374,1.504-34.475,2.984
		c-7.908,1.054-15.735,3.05-23.658,3.763l5.849-1.585c29.256-4.857,59.053-7.837,88.64-5.438l9.713-0.193l-1.162-1.601
		c-2.926-0.236-5.887-0.063-8.816-0.214c-21.019-1.083-41.811-1.083-62.535,1.397c-38.931,4.659-78.101,15.794-113.702,31.725
		c-0.386,0.173-0.925,0.115-1.356,0.116c-0.921,0.905,2.313,2.563,2.985,3.177c1.638,1.499,5.95,5.432,6.993,7.037
		c0.635,0.977,0.854,2.41-0.476,2.879c-2.618,0.923-4.07-2.261-5.702-3.512c-2.877-2.204-6.67-3.945-9.706-5.982
		c-3.952,0.305-6.57,3.759-10.254,4.47c-0.191,0.994,0.095,0.675,0.55,0.938c3.908,2.256,8.729,3.916,12.216,6.908
		c1.962,1.684,3.864,5.287,0.165,5.725c-1.827,0.216-6.138-3.019-8.251-4.022c-2.514-1.192-9.025-4.224-11.391-4.788
		c-2.62-0.624-6.501,3.53-9.141,4.161c-2.01,2.019-5.029,3.27-7.259,4.728c-0.518,0.339-5.222,4.501-5.369,4.831
		c-0.189,0.424-0.15,1.359,0.616,1.042c2.235-2.11,4.977-4.436,7.874-5.511l-7.648,6.576l2.37,1.484l8.859-0.801
		c1.598,0.994-0.087,2.391-1.057,3.11c-2.414,1.789-9.575,4.032-12.526,3.888c-4.544-0.222-5.714-3.468-6.923-7.191
		c0.074-0.818,2.172-2.903,2.877-3.474c2.486-2.011,6.857-4.691,9.662-6.489c4.35-2.788,8.946-5.181,13.316-7.937
		c-2.506-1.415-5.379-2.107-8.263-1.934l-1.089,2.147c0.482-1.562-1.376-1.389-1.654-2.422c-0.183-0.678,0.295-1.387,0.219-1.967
		c-0.113-0.855-0.938-3.201-0.515-3.7c1.664-0.342,1.976-1.88,3.638-2.322c5.937-1.581,9.27,3.909,14.164,5.412
		c2.965,0.91,7.527-2.529,10.081-4.128l-9.154-6.169l-0.201-0.617c1.529-2.013-0.084-6.67,3.844-5.999
		c5.076,0.867,9.5,6.405,13.729,9.094l20.28-8.63c0.665-0.253,1.464-0.165,2.136-0.416c40.141-14.991,80.792-23.643,123.737-25.966
		c8.482-0.459,17.199-0.091,25.616-0.812c1.232-0.106,2.838-0.374,3.761-1.25l-4.587-1.355
		c-39.259-7.674-80.108-8.331-118.935-17.989c-16.329-4.062-32.517-9.001-48.811-13.264c-7.327-1.917-14.839-3.077-22.02-5.617
		c-4.578-1.619-15.942-6.283-18.673-9.807c-1.051-1.357-2.775-4.241-1.15-5.695c0.705-0.631,7.434-1.824,8.417-1.589
		c1.567,0.375,5.502,3.722,7.19,4.742c26.628,16.08,75.008,17.503,105.014,11.111c17.173-3.658,28.255-8.927,41.773-19.746
		c1.408-1.126,2.029-3.458,4.472-3.755c2.302-0.28,4.554,1.588,4.394,3.959c-0.097,1.435-0.949,1.448-1.485,2.376
		C208.712,59.656,208.11,61.027,206.443,62.816z M149.681,79.616c-0.747-0.035-1.492-0.039-2.236,0.096
		c-13.278,2.395-30.95,1.435-44.631-0.231c-4.101-0.5-8.15-1.501-12.252-1.985c0.111,0.595,0.762,0.877,1.274,1.059
		c8.455,3.014,20.482,3.241,29.378,3.324c9.155,0.086,18.789,0.249,27.828-1.429C149.738,80.32,149.777,80.725,149.681,79.616z
		 M86.616,78.901c-1.588-0.699-2.353,0.42-0.849,1.041l26.059,7.736c0.172-1.009-0.102-0.809-0.841-1.046
		c-7.867-2.523-16.255-4.263-23.927-7.049C86.78,79.483,86.727,78.95,86.616,78.901z M170.522,80.889
		c-6.645,0.054-13.221,0.733-19.771,1.277c-10.541,0.875-21.248,2.159-31.926,2.138c-3.084-0.006-6.747-0.596-9.886-0.749
		l-1.361,0.299c10.33,2.891,20.555,6.348,31.031,8.724c8.544,1.938,17.299,3.116,25.96,4.444l-0.386-3.353
		c1.199-0.173,2.348-2.104,2.63-3.165c0.273-1.025-0.692-1.063-0.374-2.397c0.068-0.288,2.439-4.625,2.795-5.212
		C169.619,82.261,170.958,82.352,170.522,80.889z M271.801,113.103l1.237-0.153c2.097-2.697,4.705-5.347,7.215-7.657
		c4.639-4.27,10.912-8.177,15.125-12.499c0.686-0.703,2.326-2.449,2.112-3.422c-1.135-1.47-22.393-2.604-25.934-2.987
		c-2.092-0.227-12.491-2.131-13.438-1.487c-0.578,0.453-0.406,1.012-0.322,1.611C259.043,95.395,267.6,105.312,271.801,113.103z
		 M159.466,97.874c-0.814-0.346-2.043-0.025-2.695-0.162c-10.39-2.179-20.974-3.955-31.433-6.746
		c-3.496-0.933-6.874-2.582-10.53-2.857c0.096,0.664,1.392,1.031,1.944,1.237c7.077,2.648,17.49,4.492,24.948,6.087
		c5.153,1.102,10.548,2.527,15.898,3.239C158.446,98.785,159.795,99.147,159.466,97.874z M305.354,93.628
		c-1.067,0.235-2.416,0.969-3.356,1.528c-6.055,3.603-13.659,8.723-18.767,13.534c-0.378,0.356-2.134,1.878-1.691,2.341
		L305.354,93.628z M201.508,103.079c-0.154-0.066-2.421,0.203-3.342,0.086l-38.274-4.865c0.777,1.475,2.989,0.654,4.422,0.888
		c20.128,3.284,40.665,5.37,60.823,8.066c2.247,0.3,5.896,1.466,8.117,1.247c0.807-0.08,0.7,0.072,0.645-0.863
		c-8.076-0.798-16.057-2.319-24.086-3.346C206.601,103.88,203.977,104.137,201.508,103.079z M245.382,110.177
		c-1.522-1.591-4.716-1.373-6.803-1.692c-0.201,1.211,0.254,0.707,0.983,0.904C241.463,109.905,243.474,109.698,245.382,110.177z
		 M255.165,111.876c-0.148-0.816-0.889-0.7-1.468-0.866c-2.357-0.675-5.05-0.767-7.462-1.251c-0.205,1.302,0.328,0.681,1.061,0.834
		C249.867,111.13,252.533,111.754,255.165,111.876z"/>
	<path stroke="#000000" stroke-width="3" stroke-miterlimit="10" d="M816.18,96.169c0.706-0.357,0.834-1.371,1.473-2.132
		c2.102-2.504,5.05-4.319,7.304-6.507c3.213-3.117,9.8-11.22,13.237-12.898c3.544-1.73,10.462-4.686,12.216-8.61
		c0.898-2.01-0.651-2.929,1.911-5.31c2.763-2.566,5.571-3.073,9.057-1.807c1.516,0.551,2.705,1.762,3.706,2.181
		c20.837,8.712,44.401,4.85,66.563,7.494c10.615,1.292,21.242,2.253,31.834,3.886c5.807,0.895,16.382,2.125,21.547,3.965
		c1.369,0.488,2.774,1.542,3.206,2.978c0.156,0.519-1.032,3.953-1.308,4.429c-0.81,1.4-2.391,1.119-3.178,1.568
		c-4.953,2.824-8.208,4.372-14.238,4.829c-0.919,0.07-0.791-0.382-0.22-0.65c1.758-0.824,5.822-1.373,8.077-2.127
		c1.83-0.612,3.834-1.762,5.746-2.328c0.681-0.608-0.415-0.42-0.748-0.331c-2.548,0.679-5.158,1.996-7.876,2.759
		c-14.863,4.167-30.062,7.324-44.85,11.697c-18.986,5.614-36.893,12.36-55.266,19.567c-0.413,0.162-1.582,0.124-1.199,0.904
		c0.372,0.759,1.16,0.636,1.841,0.612c3.029-0.108,7.113-1.348,10.281-1.662c36.375-3.605,73.491,0.094,108.047,11.829
		c4.298-1.424,8.568-3.43,12.476-5.731c2.301-1.355,6.733-5.199,8.578-5.874c1.38-0.505,3.562-0.339,3.723,1.336
		c0.115,1.199-0.152,1.388-1.185,0.983c-0.267,0.884,0.768,1.093,1.051,1.703c0.759,1.636-0.132,4.61-1.684,5.55
		c-0.791,0.48-1.917-0.276-2.901-0.054c-0.571,0.128-0.46,1.609-1.572,1.29l0.396-1.935l4.705-1.464
		c-0.397-1.415-2.497-0.301-3.522,0.097c-4.937,1.918-9.631,4.634-14.465,6.789l-0.722,1.61l3.535-1.602l13.694,5.458
		c2.238-0.038,4.5-3.313,6.107-4.105c1.694-0.835,6.819-2.917,7.29,0.058c0.466,2.943-1.137,2.483-2.706,3.655
		c-1.501,1.121-3.267,2.396-4.532,3.75c0.71-0.049,1.347,0.07,2.008,0.335c5.193,2.082,13.056,6.002,17.689,9.09
		c4.354,2.902,11.729,9.571,10.41,15.328c-1.291,5.634-8.415,3.299-12.364,2.759c-2.948-1.548-3.6-9.294,1.514-8.316
		c0.315,0.06,2.472,1.418,2.426,0.126c-0.039-1.078-8.511-7.812-9.981-8.709c-1.677-1.022-11.171-6.1-12.446-6.288
		c-1.158-0.171-3.166,1.6-4.481,2.139c-1.048,0.43-2.324,0.156-3.07,1.173l-0.653-1.061l0.212-0.646
		c0.358-0.565,3.52-1.715,4.343-2.245c0.307-0.198,0.405-0.901,0.752-1.142c0.964-0.671,2.841-0.588,2.788-2.113
		c-0.666-0.068-1.215,0.291-1.784,0.55c-3.228,1.467-10.945,6.487-13.111,9.108c-1.581,1.913-3.086,6.71-5.476,7.102
		c-1.055,0.173-2.453-0.605-2.604-1.712c-0.419-3.087,6.471-10.284,8.969-12.264c0.563-0.446,5.023-2.569,4.225-3.629l-11.021-4.48
		c-1.386,0.471-6.073,3.154-7.266,1.92l1.07-1.273l1.053,0.853l-0.427-1.691l1.643-0.492l-0.144-1.629
		c-1.866,0.047-2.265,1.557-2.896,1.989c-2.195,1.501-5.927,3.754-6.264,6.699c-0.234,2.042,1.533,5.621-1.497,6.164
		c-4.918,0.88-4.607-5.323-3.38-8.484c1.402-3.611,4.924-4.749,6.991-7.033c0.357-0.394,0.704-0.379,0.026-0.831
		c-0.907-0.603-4.076-1.479-5.346-1.882c-31.424-9.949-79.749-14.643-111.629-6.143c-0.863,0.23-1.869-0.523-2.122,0.595
		l1.699,0.006l-0.445,1.037c-5.198,2.189-10.698,3.711-15.948,5.733c-8.521,3.282-16.963,7.152-25.426,10.283
		c-0.701,0.259-1.585,2.526-3.82,1.982c-0.48-0.117-0.807-0.839-1.141-0.938c-1.293-0.382-2.848,0.498-2.967-1.801
		c-0.094-1.81,3.768-4.932,5.301-6.113c11.447-8.82,20.511-8.755,32.828-13.507c0.995-0.384,5.772-2.629,5.625-3.614
		c-4.16-3.51-9.585-23.999-13.871-25.244c-2.769-0.804-7.123,0.875-9.777,1.953c-7.361,2.991-14.492,7.361-21.208,11.537
		l-0.15,0.578c1.174,1.079,1.1,2.538,1.708,3.843c1.299,2.792,7.351,11.881,2.493,14.07c-3.203,1.443-3.775-4.852-4.453-6.595
		c-1.07-2.753-3.634-9.261-4.899-11.559c-0.292-0.53-1.388-0.89-1.928-1.581c-1.681-2.151-0.736-4.502-1.141-6.927
		c-1.79-10.708-6.833-25.719-10.678-36.043c-0.679-1.823-2.108-5.61-3.082-7.114c-1.55-2.394-7.354-5.9-2.951-9.388
		c0.575-0.456,4.499-1.673,5.044-1.586c0.237,0.038,3.055,1.941,3.274,2.22c0.552,0.706,1.193,3.025,1.492,4.03
		c3.126,10.538,4.639,21.558,7.289,32.209C813.705,87.664,815.439,91.815,816.18,96.169z M852.321,67.304
		c-0.303-0.205-5.085,3.41-5.333,3.821c-0.258,0.428,0.229,1.344,0.078,2.132c-0.361,1.886-7.482,7.599-9.408,9.335
		c-0.885,0.798-1.723,1.39-2.747,2.336c-1.596,1.474-12.551,11.351-12.353,12.298c0.505,0.745,0.627,0.521,1.285,0.468
		c1.702-0.139,7.273-2.415,9.147-3.208c4.948-2.092,17.638-9.999,22.523-8.104c1.378,0.534,3.93,2.649,4.564,3.967
		c2.902,6.038,4.374,19.847,9.478,24.08c3.58,2.969,4.387,1.317,7.747,0.09c22.008-8.038,44.177-15.454,66.56-22.293
		c9.959-3.043,20.636-4.814,29.811-9.727c1.278-0.684,2.782-0.729,3.701-2.249c-17.521-4.946-36.477-7.014-54.657-8.273
		c-7.636-0.529-18.525-1.612-25.873-1.123c-4.421,0.294-9.355,1.985-13.892,1.969c-0.405,1.353,0.603,1.145,0.839,1.578
		c1.256,2.312,3.358,6.294,1.074,8.606c-0.158,0.16-3.135,1.612-3.319,1.61c-3.513-0.043-9.909-7.455-12.838-9.676
		c-4.088-3.1-3.89-2.295-8.473-3.006C857.837,71.564,853.122,69.775,852.321,67.304z M881.089,79.77
		c0.527,0.659,1.54,3.437,2.483,3.234c0.341-0.074,1.089-1.01,1.086-1.475c-0.008-1.482-6.96-9.455-8.502-8.274l-0.247,1.281
		C877.672,76.104,879.597,77.906,881.089,79.77z M922.931,119.1c-1.982,0.291-4.228-0.293-6.093-0.266
		c-0.408,0.006-2.417,0.095-2.41,0.684c2.625-0.057,5.226,0.766,7.874,0.43C922.924,119.869,923.621,119.623,922.931,119.1z
		 M913.576,119.097h-8.507c0.194,0.878,0.745,0.691,1.369,0.744c0.919,0.078,3.374,0.053,4.375,0.002
		C911.441,119.812,913.375,119.846,913.576,119.097z M931.438,119.526l-7.024-0.421l-0.203,0.839
		c1.727-0.316,3.664,0.525,5.289,0.435C929.996,120.351,931.427,120.25,931.438,119.526z M953.983,122.914
		c-0.238-0.848-1.381-0.926-2.105-1.078c-4.953-1.044-13.193-1.939-18.312-2.114c-0.657-0.022-1.067,0.011-1.697,0.23
		L953.983,122.914z M970.143,126.313l-1.083-1.25c-4.772-0.662-9.398-2.377-14.224-2.565L970.143,126.313z M990.987,131.414
		c-2.357-0.434-4.673-1.036-6.802-2.127c-1.304,1.265,6.254,2.455,6.596,2.965L990.987,131.414z"/>
	<path stroke="#000000" stroke-width="3" stroke-miterlimit="10" d="M776.501,68.267c1.574,1.563,0.282,2.655,0.316,3.472
		c0.079,1.867,0.851,7.138,1.919,8.521c0.767,0.992,2.92,2.014,4.152,2.224c2.889,0.491,6.02-1.286,7.708,1.219
		c-2.297,5.978-13.689,6.192-17.561,1.822c-1.579-1.782-3.714-9.325-4.989-10.078c-0.308-0.182-0.801-0.105-1.167-0.038
		c-1.033,2.219-2.206,4.845-3.519,6.889c-2.925,4.553-7.649,8.508-10.218,13.151c-2.333,4.217-2.977,5.702,0.292,9.641
		c4.219,5.086,10.698,4.933,16.575,6.801c9.794-0.901,19.309-3.769,28.249-7.707c0.521-1.114-0.802-2.277-0.782-3.134
		c0.117-4.773,12.079-1.995,7.933,3.905c-2.28,3.244-9.113,5.531-12.963,6.801c-9.707,3.202-23.682,6.644-33.705,4.17
		c-6.933-1.711-16.76-8.043-14.022-16.356l-0.842-0.001c-2.905,4.881-8.292,8.724-13.053,11.812
		c-13.977,9.064-47.619,24.31-62.094,10.965c-1.44-1.327-2.702-5.076-4.194-5.365c-1.791-0.346-7.273-0.139-9.294,0.046
		c-7.726,0.707-16.945,4.361-24.838,5.775c-3.694,0.662-12.199,1.878-15.595,1.361c-1.753-0.267-4.614-3.414-4.853-4.95
		c-0.178-1.141,1.047-2.746,1.832-3.531c4.514-4.515,11.447-8.958,16.398-13.351c4.469-3.965,16.059-14.931,16.445-20.865
		c0.12-1.847-1.135-5.396,1.515-6.636c0.316-0.148,3.823-1.481,4.037-1.524c1.926-0.392,4.361,1.229,4.698,3.193
		c-1.702,6.5-3.108,10.896-8.033,15.573c-6.507,6.179-14.301,10.956-21.007,16.833c-0.913,0.8-4.46,4.102-4.911,4.861
		c-0.388,0.652-0.551,1.15-0.387,1.914c3.696,0.784,7.781,0.611,11.544,0.3c10.843-0.898,20.872-4.731,31.225-6.23
		c0.664-0.096,1.618,0.453,1.889,0.249c0.395-0.298,1.231-5.724,1.574-6.935c0.627-2.216,2.74-6.025,3.017-7.636
		c0.219-1.277-0.61-2.516-0.732-3.76c-0.749-7.596,4.275-11.628,10.572-14.406c13.152-5.802,38.026-11.641,52.443-9.014
		c9.057,1.65,17.949,7.399,18.812,17.305c3.986-3.361,2.833-11.002,6.622-13.768c2.486-1.815,7.498-3.727,9.969-1.097
		C768.915,67.829,773.964,65.748,776.501,68.267z M747.702,91.501c4.043-3.743,0.008-10.466-3.263-13.517
		c-10.64-9.924-38.911-6.413-51.6-1.972c-2.935,1.027-6.029,2.478-8.732,4.023c-0.582,0.883,0.699,0.237,0.986,0.133
		c1.888-0.681,3.724-1.561,5.605-2.255c0.134,0.787,0.52,1.453,0.434,2.298c-0.078,0.77-1.275,5.396-1.619,6.066
		c-0.825,1.604-3.08,2.66-3.514,3.392c-0.375,0.632-0.304,2.457-1.041,2.675c-2.853,0.843-0.058-4.229-1.063-5.515
		c-1.721,0.705-5.362,3.705-5.869,5.404c-1.032,3.461,3.244,8.558,5.438,10.951c0.659,0.718,5.108,4.021,4.261,4.871
		c-3.462,1.109-13.125-6.963-15.038-6.332c-1.477,0.487-2.091,8.78-1.692,10.48c0.745,3.174,2.922,6.263,5.809,7.819
		c14.376,7.747,39.725-3.931,52.31-12.046c8.913-5.746,21.253-16.052,11.284-26.809c-3.894-4.201-12.949-6.761-18.454-7.478
		c-2.946-0.384-6.158,0.107-9.123-0.025c0.003-0.385,0.383-0.658,0.729-0.754c2.424-0.671,12.968,0.401,15.954,0.875
		c7.196,1.141,14.166,4.91,17.084,11.818C747.34,87.383,747.838,89.572,747.702,91.501z"/>
	<path stroke="#000000" stroke-width="3" stroke-miterlimit="10" d="M362.232,76.804c1.686,0.354,5.003,1.403,7.145,1.555
		c3.49,0.248,11.37-1.751,10.072,4.53c-1.791,1.816-2.362,4.328-4.117,6.074c-1.31,1.303-3.637,2.704-5.229,3.788
		c-2.887,1.966-6.311,3.988-9.442,5.562c-0.756,1.128,1.998,2.487,2.804,2.9c5.003,2.566,15.219,4.758,20.804,4.313
		c1.877-0.149,9.014-2.863,8.98,0.202c-0.931,2.698-4.876,3.463-7.413,3.91c-7.33,1.291-21.237-0.234-28.693-1.69
		c-2.625-0.513-7.35-2.468-7.37-5.622c-0.001-0.198,0.541-3.56,0.638-3.722c0.419-0.698,3.073-2.871,3.894-3.458
		c4.739-3.389,11.698-5.805,14.423-11.282c-0.743-1.057-17.73-0.184-19.571,1.058c-1.415,0.955,3.964,8.844-0.127,7.811
		c-1.511-0.382-2.761-7.088-3.818-8.329c-0.929-1.091-4.928-1.459-6.016-3.119c-1.629-2.486-0.568-7.024,1.926-8.622
		c4.338-2.781,6.549,0.404,10.504,1.734C354.844,75.48,358.861,76.096,362.232,76.804z"/>
	<path stroke="#000000" stroke-width="3" stroke-miterlimit="10" d="M335.424,82.246c1.374-0.413,4.384-0.311,5.033,1.208
		c0.155,0.363-0.699,6.318-0.659,7.856c0.14,5.366,3.772,13.251,8.079,16.547c1.677,1.283,7.34,3.554,8.123,4.625
		c2.229,3.046-1.856,4.78-4.799,3.953c-9.384-2.639-16.638-14.805-19.975-23.375c-1.088-2.794-1.388-5.956,0.721-8.342
		C332.135,84.504,335.219,82.307,335.424,82.246z"/>
	<path stroke="#000000" stroke-width="3" stroke-miterlimit="10" d="M160.314,129.291c0.101,0.597-0.754,0.62-1.179,0.723
		c-2.827,0.684-5.79,1.039-8.598,1.819c-0.209-1.279,0.313-0.683,1.031-0.859C154.379,130.282,157.437,129.618,160.314,129.291z"/>
</g>
<g>
</g>
<g>
</g>
<g>
</g>
<g>
</g>
<g>
</g>
<g>
</g>
<g>
</g>
<g>
</g>
<g>
</g>
<g>
</g>
<g>
</g>
</svg>
